<?xml version="1.0" standalone="no"?>
<!DOCTYPE svg PUBLIC "-//W3C//DTD SVG 20010904//EN"
 "http://www.w3.org/TR/2001/REC-SVG-20010904/DTD/svg10.dtd">
<svg version="1.0" xmlns="http://www.w3.org/2000/svg"
 width="260.000000pt" height="260.000000pt" viewBox="0 0 260.000000 260.000000"
 preserveAspectRatio="xMidYMid meet">
<metadata>
Created by potrace 1.11, written by Peter Selinger 2001-2013
</metadata>
<g transform="translate(0.000000,260.000000) scale(0.100000,-0.100000)"
fill="#000000" stroke="none">
<path d="M1231 2327 c-124 -215 -429 -745 -618 -1072 -105 -181 -201 -348
-213 -370 -12 -22 -70 -123 -129 -225 -186 -321 -251 -436 -251 -442 0 -4 193
-7 429 -7 l429 0 83 147 c46 81 89 155 94 164 6 10 39 68 75 130 35 62 72 127
82 143 10 17 31 56 48 88 17 31 34 57 38 57 5 0 46 -66 93 -146 46 -81 140
-244 209 -363 l125 -216 432 -2 431 -2 -52 92 c-29 51 -105 184 -171 297 -65
113 -126 219 -135 235 -10 17 -41 71 -70 120 -29 50 -64 110 -78 135 -14 25
-160 279 -325 565 -165 286 -334 580 -376 652 -42 73 -78 133 -81 133 -3 0
-34 -51 -69 -113z"/>
</g>
</svg>
